<svg width="23" height="24" viewBox="0 0 23 24" fill="none" xmlns="http://www.w3.org/2000/svg">
<g clip-path="url(#clip0_50_29)">
<path d="M4.25562 9.5H2.5C2.95378 4.44666 6.81007 0.5 11.5 0.5C16.1899 0.5 20.0462 4.44666 20.5 9.5H18.6556C18.2926 5.56962 15.2076 2.5 11.4556 2.5C7.70367 2.5 4.61864 5.56962 4.25562 9.5Z" fill="#D9D9D9"/>
<path d="M2.5 9.5H20.5V22.5C20.5 23.0523 20.0523 23.5 19.5 23.5H3.5C2.94772 23.5 2.5 23.0523 2.5 22.5V9.5Z" fill="#D9D9D9"/>
<path d="M12.243 17.3574C12.9797 17.0625 13.5 16.342 13.5 15.5C13.5 14.3954 12.6046 13.5 11.5 13.5C10.3954 13.5 9.5 14.3954 9.5 15.5C9.5 16.342 10.0203 17.0625 10.757 17.3574L9.60971 20.2257C9.55716 20.3571 9.65391 20.5 9.79541 20.5H13.2046C13.3461 20.5 13.4428 20.3571 13.3903 20.2257L12.243 17.3574Z" fill="black"/>
</g>
<defs>
<clipPath id="clip0_50_29">
<rect width="23" height="23" fill="white" transform="translate(0 0.5)"/>
</clipPath>
</defs>
</svg>
