<svg width="17" height="22" viewBox="0 0 17 22" fill="none" xmlns="http://www.w3.org/2000/svg">
<path d="M4.5 0C3.94772 0 3.5 0.447708 3.5 1V7H1.5C0.947723 7 0.5 7.44771 0.5 8C0.5 8.55229 0.947723 9 1.5 9V13C1.5 15.7614 3.73859 18 6.5 18L7.5 18V21C7.5 21.5523 7.94772 22 8.5 22C9.05228 22 9.5 21.5523 9.5 21V18L10.5 18C13.2614 18 15.5 15.7614 15.5 13V9C16.0523 9 16.5 8.55229 16.5 8C16.5 7.44771 16.0523 7 15.5 7H13.5V1C13.5 0.447708 13.0523 0 12.5 0C11.9477 0 11.5 0.447708 11.5 1V7H5.5V1C5.5 0.447708 5.05228 0 4.5 0Z" fill="#D9D9D9"/>
</svg>
