<svg width="19" height="20" viewBox="0 0 19 20" fill="none" xmlns="http://www.w3.org/2000/svg">
<path fill-rule="evenodd" clip-rule="evenodd" d="M6.97374e-06 8.24728C6.97374e-06 12.6082 3.59087 16.1435 8.02043 16.1435C9.71904 16.1435 11.2943 15.6236 12.5911 14.7367L17.5802 19.649L18.9834 18.2238L14.0916 13.4074C15.3062 12.0234 16.0409 10.2198 16.0409 8.24728C16.0409 3.88631 12.45 0.351044 8.02043 0.351044C3.59087 0.351044 6.97374e-06 3.88631 6.97374e-06 8.24728ZM2.03133 8.38728C2.03133 11.701 4.75968 14.3873 8.12527 14.3873C11.4909 14.3873 14.2192 11.701 14.2192 8.38728C14.2192 5.07358 11.4909 2.38728 8.12527 2.38728C4.75968 2.38728 2.03133 5.07358 2.03133 8.38728Z" fill="black"/>
</svg>
