<svg width="69" height="13" viewBox="0 0 69 13" fill="none" xmlns="http://www.w3.org/2000/svg">
<g clip-path="url(#clip0_1_2)">
<path d="M0.75 9.38197V1.61803C0.75 1.43219 0.945578 1.31131 1.1118 1.39443L8.87574 5.27639C9.06 5.36852 9.06 5.63148 8.87574 5.72361L1.1118 9.60557C0.945578 9.68869 0.75 9.56781 0.75 9.38197Z" fill="url(#paint0_linear_1_2)" stroke="url(#paint1_linear_1_2)" stroke-width="1.5"/>
<path d="M20.42 9H18.404L18.248 5.232C18.224 4.488 18.196 3.924 18.164 3.54H18.128C18.032 3.844 17.92 4.316 17.792 4.956L17.732 5.256L16.904 9H14.888L14.192 5.628L14.072 5.028C13.904 4.284 13.788 3.788 13.724 3.54H13.688C13.656 3.94 13.628 4.592 13.604 5.496C13.596 5.552 13.592 5.64 13.592 5.76L13.484 9H11.456L11.744 2.16H15.176L15.764 5.112L15.908 5.904C15.972 5.656 16.032 5.38 16.088 5.076L16.64 2.16H20.144L20.42 9ZM26.8909 3.48V9H25.2229L24.9949 8.076C24.4189 8.772 23.7309 9.12 22.9309 9.12C22.6429 9.12 22.3709 9.08 22.1149 9C21.8669 8.92 21.6789 8.804 21.5509 8.652C21.4789 8.564 21.4229 8.344 21.3829 7.992C21.3509 7.64 21.3349 7.104 21.3349 6.384V3.48H23.3869V6.36C23.3869 6.52 23.3909 6.708 23.3989 6.924C23.4069 7.14 23.4309 7.276 23.4709 7.332C23.5269 7.412 23.6869 7.452 23.9509 7.452L24.1429 7.44C24.3669 7.432 24.5989 7.38 24.8389 7.284V3.48H26.8909ZM32.3388 7.128C32.3388 7.84 32.1108 8.352 31.6548 8.664C31.2068 8.976 30.5668 9.132 29.7348 9.132C29.1508 9.132 28.4788 9.048 27.7188 8.88C27.7348 8.72 27.7708 8.492 27.8268 8.196C27.8908 7.892 27.9428 7.66 27.9828 7.5C28.2708 7.548 28.5908 7.588 28.9428 7.62C29.2948 7.644 29.5948 7.656 29.8428 7.656C30.0588 7.656 30.1908 7.644 30.2388 7.62C30.2468 7.612 30.2548 7.592 30.2628 7.56C30.2788 7.52 30.2868 7.48 30.2868 7.44C30.2868 7.28 30.1868 7.172 29.9868 7.116C29.9228 7.1 29.6788 7.032 29.2548 6.912C28.8308 6.792 28.4828 6.576 28.2108 6.264C27.9468 5.944 27.8148 5.548 27.8148 5.076C27.8148 4.828 27.8708 4.552 27.9828 4.248C28.0948 3.944 28.2148 3.752 28.3428 3.672C28.4388 3.608 28.6708 3.544 29.0388 3.48C29.4068 3.408 29.7468 3.372 30.0588 3.372C30.7228 3.372 31.3908 3.42 32.0628 3.516C32.0628 3.66 32.0428 3.904 32.0028 4.248C31.9628 4.584 31.9268 4.796 31.8948 4.884C31.2148 4.796 30.6668 4.752 30.2508 4.752C30.0348 4.752 29.8948 4.764 29.8308 4.788C29.8148 4.796 29.7988 4.82 29.7828 4.86C29.7668 4.892 29.7588 4.936 29.7588 4.992C29.7588 5.104 29.7948 5.184 29.8668 5.232C29.9388 5.288 30.1268 5.356 30.4308 5.436C30.7908 5.54 31.0988 5.648 31.3548 5.76C31.6188 5.872 31.8468 6.04 32.0388 6.264C32.2388 6.488 32.3388 6.776 32.3388 7.128ZM34.0873 2.796C33.8153 2.796 33.5793 2.704 33.3793 2.52C33.1873 2.336 33.0913 2.116 33.0913 1.86C33.0913 1.604 33.1873 1.384 33.3793 1.2C33.5793 1.016 33.8153 0.924 34.0873 0.924C34.3593 0.924 34.5913 1.016 34.7833 1.2C34.9753 1.384 35.0713 1.604 35.0713 1.86C35.0713 2.116 34.9753 2.336 34.7833 2.52C34.5913 2.704 34.3593 2.796 34.0873 2.796ZM33.0553 3.48H35.1073V9H33.0553V3.48Z" fill="white"/>
<path d="M39.8328 3.36C40.4568 3.36 40.9368 3.548 41.2728 3.924C41.6168 4.3 41.7888 4.964 41.7888 5.916C41.7888 6.612 41.7168 7.208 41.5728 7.704C41.4368 8.192 41.2808 8.504 41.1048 8.64C40.8968 8.808 40.5888 8.932 40.1808 9.012C39.7728 9.092 39.3088 9.132 38.7888 9.132C38.3888 9.132 37.9408 9.1 37.4448 9.036C36.9488 8.98 36.5048 8.888 36.1128 8.76V1.8L38.1888 1.716V2.844C38.1888 2.908 38.1848 3.056 38.1768 3.288C38.1768 3.52 38.1688 3.716 38.1528 3.876C38.1368 4.028 38.1128 4.144 38.0808 4.224L38.1528 4.308C38.3368 4.028 38.5688 3.8 38.8488 3.624C39.1288 3.448 39.4568 3.36 39.8328 3.36ZM39.4968 7.692C39.5448 7.612 39.5848 7.424 39.6168 7.128C39.6568 6.832 39.6768 6.548 39.6768 6.276C39.6768 5.956 39.6608 5.704 39.6288 5.52C39.6048 5.336 39.5368 5.192 39.4248 5.088C39.3208 4.976 39.1568 4.92 38.9328 4.92C38.7328 4.92 38.4768 4.948 38.1648 5.004V7.716C38.4608 7.764 38.7688 7.788 39.0888 7.788C39.3208 7.788 39.4568 7.756 39.4968 7.692ZM46.0018 3.36C46.1058 3.36 46.2138 3.372 46.3258 3.396C46.4458 3.42 46.5338 3.448 46.5898 3.48C46.5898 3.656 46.5698 3.948 46.5298 4.356C46.4898 4.756 46.4538 5.04 46.4218 5.208C46.3418 5.2 46.1938 5.196 45.9778 5.196C45.4738 5.196 45.0258 5.224 44.6338 5.28V9H42.5818V3.48H44.2978L44.5378 4.368H44.5498C44.7818 4.064 45.0298 3.82 45.2938 3.636C45.5578 3.452 45.7938 3.36 46.0018 3.36ZM48.1967 2.796C47.9247 2.796 47.6887 2.704 47.4887 2.52C47.2967 2.336 47.2007 2.116 47.2007 1.86C47.2007 1.604 47.2967 1.384 47.4887 1.2C47.6887 1.016 47.9247 0.924 48.1967 0.924C48.4687 0.924 48.7007 1.016 48.8927 1.2C49.0847 1.384 49.1807 1.604 49.1807 1.86C49.1807 2.116 49.0847 2.336 48.8927 2.52C48.7007 2.704 48.4687 2.796 48.1967 2.796ZM47.1647 3.48H49.2167V9H47.1647V3.48ZM55.7302 1.716V9H54.0382L53.8702 8.076C53.7102 8.388 53.4742 8.636 53.1622 8.82C52.8502 9.004 52.4982 9.096 52.1062 9.096C51.4822 9.096 50.9822 8.872 50.6062 8.424C50.2382 7.976 50.0542 7.304 50.0542 6.408C50.0542 5.728 50.1342 5.168 50.2942 4.728C50.4542 4.288 50.6422 3.972 50.8582 3.78C50.9942 3.66 51.2702 3.56 51.6862 3.48C52.1102 3.4 52.4862 3.36 52.8142 3.36C53.1022 3.36 53.3982 3.388 53.7022 3.444C53.6782 3.06 53.6662 2.848 53.6662 2.808V1.8L55.7302 1.716ZM53.0062 7.488C53.2222 7.488 53.4462 7.452 53.6782 7.38V4.776C53.4462 4.744 53.1902 4.728 52.9102 4.728C52.6702 4.728 52.5182 4.748 52.4542 4.788C52.3662 4.852 52.2942 5.036 52.2382 5.34C52.1902 5.636 52.1662 5.948 52.1662 6.276C52.1662 6.764 52.2382 7.088 52.3822 7.248C52.5342 7.408 52.7422 7.488 53.0062 7.488ZM59.5947 3.384C59.9707 3.384 60.3627 3.412 60.7707 3.468C61.1787 3.516 61.6547 3.584 62.1987 3.672V8.448C62.1987 9.592 61.8187 10.48 61.0587 11.112C60.9627 11.192 60.7467 11.26 60.4107 11.316C60.0747 11.372 59.6947 11.4 59.2707 11.4C58.3507 11.4 57.6227 11.28 57.0867 11.04C57.0787 10.864 57.0907 10.632 57.1227 10.344C57.1627 10.056 57.2027 9.828 57.2427 9.66C57.8187 9.748 58.3827 9.792 58.9347 9.792C59.2147 9.792 59.4507 9.776 59.6427 9.744C59.8427 9.72 59.9667 9.68 60.0147 9.624C60.0787 9.56 60.1267 9.32 60.1587 8.904C60.1667 8.792 60.1707 8.628 60.1707 8.412V8.112C59.9707 8.408 59.7147 8.62 59.4027 8.748C59.0907 8.876 58.8107 8.94 58.5627 8.94C57.8907 8.94 57.3827 8.72 57.0387 8.28C56.6947 7.84 56.5227 7.196 56.5227 6.348C56.5227 5.788 56.5987 5.264 56.7507 4.776C56.9107 4.28 57.1267 3.936 57.3987 3.744C57.5747 3.624 57.8587 3.536 58.2507 3.48C58.6507 3.416 59.0987 3.384 59.5947 3.384ZM59.3427 7.44C59.6387 7.44 59.9067 7.392 60.1467 7.296V4.788C60.0587 4.772 59.9267 4.756 59.7507 4.74C59.6707 4.732 59.5507 4.728 59.3907 4.728C59.1427 4.728 58.9867 4.752 58.9227 4.8C58.8347 4.864 58.7627 5.044 58.7067 5.34C58.6587 5.628 58.6347 5.932 58.6347 6.252C58.6347 6.692 58.6827 7 58.7787 7.176C58.8827 7.352 59.0707 7.44 59.3427 7.44ZM66.5197 7.56C66.7197 7.56 67.0917 7.54 67.6357 7.5C67.7077 7.5 67.8397 7.492 68.0317 7.476L68.2117 8.712C67.5957 9 66.7957 9.144 65.8117 9.144C64.8917 9.144 64.1837 8.912 63.6877 8.448C63.1997 7.984 62.9557 7.284 62.9557 6.348C62.9557 5.868 63.0157 5.404 63.1357 4.956C63.2637 4.508 63.4077 4.196 63.5677 4.02C63.7357 3.844 64.0477 3.692 64.5037 3.564C64.9597 3.436 65.4117 3.372 65.8597 3.372C66.5797 3.372 67.1197 3.5 67.4797 3.756C67.8397 4.012 68.0757 4.368 68.1877 4.824C68.2997 5.272 68.3557 5.876 68.3557 6.636C67.8117 6.668 67.2797 6.684 66.7597 6.684H65.0557C65.0557 6.94 65.1077 7.132 65.2117 7.26C65.3237 7.388 65.4797 7.472 65.6797 7.512C65.8797 7.544 66.1597 7.56 66.5197 7.56ZM65.1757 4.8C65.1277 4.824 65.0917 4.928 65.0677 5.112C65.0437 5.296 65.0277 5.504 65.0197 5.736H65.6437C66.0197 5.736 66.2917 5.732 66.4597 5.724C66.4597 5.34 66.4037 5.068 66.2917 4.908C66.1877 4.748 66.0037 4.668 65.7397 4.668C65.5237 4.668 65.3357 4.712 65.1757 4.8Z" fill="white"/>
<path d="M39.8328 3.36C40.4568 3.36 40.9368 3.548 41.2728 3.924C41.6168 4.3 41.7888 4.964 41.7888 5.916C41.7888 6.612 41.7168 7.208 41.5728 7.704C41.4368 8.192 41.2808 8.504 41.1048 8.64C40.8968 8.808 40.5888 8.932 40.1808 9.012C39.7728 9.092 39.3088 9.132 38.7888 9.132C38.3888 9.132 37.9408 9.1 37.4448 9.036C36.9488 8.98 36.5048 8.888 36.1128 8.76V1.8L38.1888 1.716V2.844C38.1888 2.908 38.1848 3.056 38.1768 3.288C38.1768 3.52 38.1688 3.716 38.1528 3.876C38.1368 4.028 38.1128 4.144 38.0808 4.224L38.1528 4.308C38.3368 4.028 38.5688 3.8 38.8488 3.624C39.1288 3.448 39.4568 3.36 39.8328 3.36ZM39.4968 7.692C39.5448 7.612 39.5848 7.424 39.6168 7.128C39.6568 6.832 39.6768 6.548 39.6768 6.276C39.6768 5.956 39.6608 5.704 39.6288 5.52C39.6048 5.336 39.5368 5.192 39.4248 5.088C39.3208 4.976 39.1568 4.92 38.9328 4.92C38.7328 4.92 38.4768 4.948 38.1648 5.004V7.716C38.4608 7.764 38.7688 7.788 39.0888 7.788C39.3208 7.788 39.4568 7.756 39.4968 7.692ZM46.0018 3.36C46.1058 3.36 46.2138 3.372 46.3258 3.396C46.4458 3.42 46.5338 3.448 46.5898 3.48C46.5898 3.656 46.5698 3.948 46.5298 4.356C46.4898 4.756 46.4538 5.04 46.4218 5.208C46.3418 5.2 46.1938 5.196 45.9778 5.196C45.4738 5.196 45.0258 5.224 44.6338 5.28V9H42.5818V3.48H44.2978L44.5378 4.368H44.5498C44.7818 4.064 45.0298 3.82 45.2938 3.636C45.5578 3.452 45.7938 3.36 46.0018 3.36ZM48.1967 2.796C47.9247 2.796 47.6887 2.704 47.4887 2.52C47.2967 2.336 47.2007 2.116 47.2007 1.86C47.2007 1.604 47.2967 1.384 47.4887 1.2C47.6887 1.016 47.9247 0.924 48.1967 0.924C48.4687 0.924 48.7007 1.016 48.8927 1.2C49.0847 1.384 49.1807 1.604 49.1807 1.86C49.1807 2.116 49.0847 2.336 48.8927 2.52C48.7007 2.704 48.4687 2.796 48.1967 2.796ZM47.1647 3.48H49.2167V9H47.1647V3.48ZM55.7302 1.716V9H54.0382L53.8702 8.076C53.7102 8.388 53.4742 8.636 53.1622 8.82C52.8502 9.004 52.4982 9.096 52.1062 9.096C51.4822 9.096 50.9822 8.872 50.6062 8.424C50.2382 7.976 50.0542 7.304 50.0542 6.408C50.0542 5.728 50.1342 5.168 50.2942 4.728C50.4542 4.288 50.6422 3.972 50.8582 3.78C50.9942 3.66 51.2702 3.56 51.6862 3.48C52.1102 3.4 52.4862 3.36 52.8142 3.36C53.1022 3.36 53.3982 3.388 53.7022 3.444C53.6782 3.06 53.6662 2.848 53.6662 2.808V1.8L55.7302 1.716ZM53.0062 7.488C53.2222 7.488 53.4462 7.452 53.6782 7.38V4.776C53.4462 4.744 53.1902 4.728 52.9102 4.728C52.6702 4.728 52.5182 4.748 52.4542 4.788C52.3662 4.852 52.2942 5.036 52.2382 5.34C52.1902 5.636 52.1662 5.948 52.1662 6.276C52.1662 6.764 52.2382 7.088 52.3822 7.248C52.5342 7.408 52.7422 7.488 53.0062 7.488ZM59.5947 3.384C59.9707 3.384 60.3627 3.412 60.7707 3.468C61.1787 3.516 61.6547 3.584 62.1987 3.672V8.448C62.1987 9.592 61.8187 10.48 61.0587 11.112C60.9627 11.192 60.7467 11.26 60.4107 11.316C60.0747 11.372 59.6947 11.4 59.2707 11.4C58.3507 11.4 57.6227 11.28 57.0867 11.04C57.0787 10.864 57.0907 10.632 57.1227 10.344C57.1627 10.056 57.2027 9.828 57.2427 9.66C57.8187 9.748 58.3827 9.792 58.9347 9.792C59.2147 9.792 59.4507 9.776 59.6427 9.744C59.8427 9.72 59.9667 9.68 60.0147 9.624C60.0787 9.56 60.1267 9.32 60.1587 8.904C60.1667 8.792 60.1707 8.628 60.1707 8.412V8.112C59.9707 8.408 59.7147 8.62 59.4027 8.748C59.0907 8.876 58.8107 8.94 58.5627 8.94C57.8907 8.94 57.3827 8.72 57.0387 8.28C56.6947 7.84 56.5227 7.196 56.5227 6.348C56.5227 5.788 56.5987 5.264 56.7507 4.776C56.9107 4.28 57.1267 3.936 57.3987 3.744C57.5747 3.624 57.8587 3.536 58.2507 3.48C58.6507 3.416 59.0987 3.384 59.5947 3.384ZM59.3427 7.44C59.6387 7.44 59.9067 7.392 60.1467 7.296V4.788C60.0587 4.772 59.9267 4.756 59.7507 4.74C59.6707 4.732 59.5507 4.728 59.3907 4.728C59.1427 4.728 58.9867 4.752 58.9227 4.8C58.8347 4.864 58.7627 5.044 58.7067 5.34C58.6587 5.628 58.6347 5.932 58.6347 6.252C58.6347 6.692 58.6827 7 58.7787 7.176C58.8827 7.352 59.0707 7.44 59.3427 7.44ZM66.5197 7.56C66.7197 7.56 67.0917 7.54 67.6357 7.5C67.7077 7.5 67.8397 7.492 68.0317 7.476L68.2117 8.712C67.5957 9 66.7957 9.144 65.8117 9.144C64.8917 9.144 64.1837 8.912 63.6877 8.448C63.1997 7.984 62.9557 7.284 62.9557 6.348C62.9557 5.868 63.0157 5.404 63.1357 4.956C63.2637 4.508 63.4077 4.196 63.5677 4.02C63.7357 3.844 64.0477 3.692 64.5037 3.564C64.9597 3.436 65.4117 3.372 65.8597 3.372C66.5797 3.372 67.1197 3.5 67.4797 3.756C67.8397 4.012 68.0757 4.368 68.1877 4.824C68.2997 5.272 68.3557 5.876 68.3557 6.636C67.8117 6.668 67.2797 6.684 66.7597 6.684H65.0557C65.0557 6.94 65.1077 7.132 65.2117 7.26C65.3237 7.388 65.4797 7.472 65.6797 7.512C65.8797 7.544 66.1597 7.56 66.5197 7.56ZM65.1757 4.8C65.1277 4.824 65.0917 4.928 65.0677 5.112C65.0437 5.296 65.0277 5.504 65.0197 5.736H65.6437C66.0197 5.736 66.2917 5.732 66.4597 5.724C66.4597 5.34 66.4037 5.068 66.2917 4.908C66.1877 4.748 66.0037 4.668 65.7397 4.668C65.5237 4.668 65.3357 4.712 65.1757 4.8Z" fill="#E02E70"/>
</g>
<defs>
<linearGradient id="paint0_linear_1_2" x1="-2.40638e-10" y1="5.52228" x2="4.00002" y2="5.50387" gradientUnits="userSpaceOnUse">
<stop offset="1" stop-color="#E02E70"/>
</linearGradient>
<linearGradient id="paint1_linear_1_2" x1="7.5" y1="3.5" x2="2.34509" y2="6.20476" gradientUnits="userSpaceOnUse">
<stop stop-color="#EFEEEF"/>
<stop offset="1" stop-color="#E02E70"/>
</linearGradient>
<clipPath id="clip0_1_2">
<rect width="69" height="13" fill="white"/>
</clipPath>
</defs>
</svg>
