<svg width="64" height="12" viewBox="0 0 64 12" fill="none" xmlns="http://www.w3.org/2000/svg">
<g clip-path="url(#clip0_1_13)">
<path d="M9.42 9H7.404L7.248 5.232C7.224 4.488 7.196 3.924 7.164 3.54H7.128C7.032 3.844 6.92 4.316 6.792 4.956L6.732 5.256L5.904 9H3.888L3.192 5.628L3.072 5.028C2.904 4.284 2.788 3.788 2.724 3.54H2.688C2.656 3.94 2.628 4.592 2.604 5.496C2.596 5.552 2.592 5.64 2.592 5.76L2.484 9H0.456L0.744 2.16H4.176L4.764 5.112L4.908 5.904C4.972 5.656 5.032 5.38 5.088 5.076L5.64 2.16H9.144L9.42 9ZM15.8909 3.48V9H14.2229L13.9949 8.076C13.4189 8.772 12.7309 9.12 11.9309 9.12C11.6429 9.12 11.3709 9.08 11.1149 9C10.8669 8.92 10.6789 8.804 10.5509 8.652C10.4789 8.564 10.4229 8.344 10.3829 7.992C10.3509 7.64 10.3349 7.104 10.3349 6.384V3.48H12.3869V6.36C12.3869 6.52 12.3909 6.708 12.3989 6.924C12.4069 7.14 12.4309 7.276 12.4709 7.332C12.5269 7.412 12.6869 7.452 12.9509 7.452L13.1429 7.44C13.3669 7.432 13.5989 7.38 13.8389 7.284V3.48H15.8909ZM21.3388 7.128C21.3388 7.84 21.1108 8.352 20.6548 8.664C20.2068 8.976 19.5668 9.132 18.7348 9.132C18.1508 9.132 17.4788 9.048 16.7188 8.88C16.7348 8.72 16.7708 8.492 16.8268 8.196C16.8908 7.892 16.9428 7.66 16.9828 7.5C17.2708 7.548 17.5908 7.588 17.9428 7.62C18.2948 7.644 18.5948 7.656 18.8428 7.656C19.0588 7.656 19.1908 7.644 19.2388 7.62C19.2468 7.612 19.2548 7.592 19.2628 7.56C19.2788 7.52 19.2868 7.48 19.2868 7.44C19.2868 7.28 19.1868 7.172 18.9868 7.116C18.9228 7.1 18.6788 7.032 18.2548 6.912C17.8308 6.792 17.4828 6.576 17.2108 6.264C16.9468 5.944 16.8148 5.548 16.8148 5.076C16.8148 4.828 16.8708 4.552 16.9828 4.248C17.0948 3.944 17.2148 3.752 17.3428 3.672C17.4388 3.608 17.6708 3.544 18.0388 3.48C18.4068 3.408 18.7468 3.372 19.0588 3.372C19.7228 3.372 20.3908 3.42 21.0628 3.516C21.0628 3.66 21.0428 3.904 21.0028 4.248C20.9628 4.584 20.9268 4.796 20.8948 4.884C20.2148 4.796 19.6668 4.752 19.2508 4.752C19.0348 4.752 18.8948 4.764 18.8308 4.788C18.8148 4.796 18.7988 4.82 18.7828 4.86C18.7668 4.892 18.7588 4.936 18.7588 4.992C18.7588 5.104 18.7948 5.184 18.8668 5.232C18.9388 5.288 19.1268 5.356 19.4308 5.436C19.7908 5.54 20.0988 5.648 20.3548 5.76C20.6188 5.872 20.8468 6.04 21.0388 6.264C21.2388 6.488 21.3388 6.776 21.3388 7.128ZM23.0873 2.796C22.8153 2.796 22.5793 2.704 22.3793 2.52C22.1873 2.336 22.0913 2.116 22.0913 1.86C22.0913 1.604 22.1873 1.384 22.3793 1.2C22.5793 1.016 22.8153 0.924 23.0873 0.924C23.3593 0.924 23.5913 1.016 23.7833 1.2C23.9753 1.384 24.0713 1.604 24.0713 1.86C24.0713 2.116 23.9753 2.336 23.7833 2.52C23.5913 2.704 23.3593 2.796 23.0873 2.796ZM22.0553 3.48H24.1073V9H22.0553V3.48Z" fill="white"/>
<path d="M28.8328 3.36C29.4568 3.36 29.9368 3.548 30.2728 3.924C30.6168 4.3 30.7888 4.964 30.7888 5.916C30.7888 6.612 30.7168 7.208 30.5728 7.704C30.4368 8.192 30.2808 8.504 30.1048 8.64C29.8968 8.808 29.5888 8.932 29.1808 9.012C28.7728 9.092 28.3088 9.132 27.7888 9.132C27.3888 9.132 26.9408 9.1 26.4448 9.036C25.9488 8.98 25.5048 8.888 25.1128 8.76V1.8L27.1888 1.716V2.844C27.1888 2.908 27.1848 3.056 27.1768 3.288C27.1768 3.52 27.1688 3.716 27.1528 3.876C27.1368 4.028 27.1128 4.144 27.0808 4.224L27.1528 4.308C27.3368 4.028 27.5688 3.8 27.8488 3.624C28.1288 3.448 28.4568 3.36 28.8328 3.36ZM28.4968 7.692C28.5448 7.612 28.5848 7.424 28.6168 7.128C28.6568 6.832 28.6768 6.548 28.6768 6.276C28.6768 5.956 28.6608 5.704 28.6288 5.52C28.6048 5.336 28.5368 5.192 28.4248 5.088C28.3208 4.976 28.1568 4.92 27.9328 4.92C27.7328 4.92 27.4768 4.948 27.1648 5.004V7.716C27.4608 7.764 27.7688 7.788 28.0888 7.788C28.3208 7.788 28.4568 7.756 28.4968 7.692ZM35.0018 3.36C35.1058 3.36 35.2138 3.372 35.3258 3.396C35.4458 3.42 35.5338 3.448 35.5898 3.48C35.5898 3.656 35.5698 3.948 35.5298 4.356C35.4898 4.756 35.4538 5.04 35.4218 5.208C35.3418 5.2 35.1938 5.196 34.9778 5.196C34.4738 5.196 34.0258 5.224 33.6338 5.28V9H31.5818V3.48H33.2978L33.5378 4.368H33.5498C33.7818 4.064 34.0298 3.82 34.2938 3.636C34.5578 3.452 34.7938 3.36 35.0018 3.36ZM37.1967 2.796C36.9247 2.796 36.6887 2.704 36.4887 2.52C36.2967 2.336 36.2007 2.116 36.2007 1.86C36.2007 1.604 36.2967 1.384 36.4887 1.2C36.6887 1.016 36.9247 0.924 37.1967 0.924C37.4687 0.924 37.7007 1.016 37.8927 1.2C38.0847 1.384 38.1807 1.604 38.1807 1.86C38.1807 2.116 38.0847 2.336 37.8927 2.52C37.7007 2.704 37.4687 2.796 37.1967 2.796ZM36.1647 3.48H38.2167V9H36.1647V3.48ZM44.7302 1.716V9H43.0382L42.8702 8.076C42.7102 8.388 42.4742 8.636 42.1622 8.82C41.8502 9.004 41.4982 9.096 41.1062 9.096C40.4822 9.096 39.9822 8.872 39.6062 8.424C39.2382 7.976 39.0542 7.304 39.0542 6.408C39.0542 5.728 39.1342 5.168 39.2942 4.728C39.4542 4.288 39.6422 3.972 39.8582 3.78C39.9942 3.66 40.2702 3.56 40.6862 3.48C41.1102 3.4 41.4862 3.36 41.8142 3.36C42.1022 3.36 42.3982 3.388 42.7022 3.444C42.6782 3.06 42.6662 2.848 42.6662 2.808V1.8L44.7302 1.716ZM42.0062 7.488C42.2222 7.488 42.4462 7.452 42.6782 7.38V4.776C42.4462 4.744 42.1902 4.728 41.9102 4.728C41.6702 4.728 41.5182 4.748 41.4542 4.788C41.3662 4.852 41.2942 5.036 41.2382 5.34C41.1902 5.636 41.1662 5.948 41.1662 6.276C41.1662 6.764 41.2382 7.088 41.3822 7.248C41.5342 7.408 41.7422 7.488 42.0062 7.488ZM48.5947 3.384C48.9707 3.384 49.3627 3.412 49.7707 3.468C50.1787 3.516 50.6547 3.584 51.1987 3.672V8.448C51.1987 9.592 50.8187 10.48 50.0587 11.112C49.9627 11.192 49.7467 11.26 49.4107 11.316C49.0747 11.372 48.6947 11.4 48.2707 11.4C47.3507 11.4 46.6227 11.28 46.0867 11.04C46.0787 10.864 46.0907 10.632 46.1227 10.344C46.1627 10.056 46.2027 9.828 46.2427 9.66C46.8187 9.748 47.3827 9.792 47.9347 9.792C48.2147 9.792 48.4507 9.776 48.6427 9.744C48.8427 9.72 48.9667 9.68 49.0147 9.624C49.0787 9.56 49.1267 9.32 49.1587 8.904C49.1667 8.792 49.1707 8.628 49.1707 8.412V8.112C48.9707 8.408 48.7147 8.62 48.4027 8.748C48.0907 8.876 47.8107 8.94 47.5627 8.94C46.8907 8.94 46.3827 8.72 46.0387 8.28C45.6947 7.84 45.5227 7.196 45.5227 6.348C45.5227 5.788 45.5987 5.264 45.7507 4.776C45.9107 4.28 46.1267 3.936 46.3987 3.744C46.5747 3.624 46.8587 3.536 47.2507 3.48C47.6507 3.416 48.0987 3.384 48.5947 3.384ZM48.3427 7.44C48.6387 7.44 48.9067 7.392 49.1467 7.296V4.788C49.0587 4.772 48.9267 4.756 48.7507 4.74C48.6707 4.732 48.5507 4.728 48.3907 4.728C48.1427 4.728 47.9867 4.752 47.9227 4.8C47.8347 4.864 47.7627 5.044 47.7067 5.34C47.6587 5.628 47.6347 5.932 47.6347 6.252C47.6347 6.692 47.6827 7 47.7787 7.176C47.8827 7.352 48.0707 7.44 48.3427 7.44ZM55.5197 7.56C55.7197 7.56 56.0917 7.54 56.6357 7.5C56.7077 7.5 56.8397 7.492 57.0317 7.476L57.2117 8.712C56.5957 9 55.7957 9.144 54.8117 9.144C53.8917 9.144 53.1837 8.912 52.6877 8.448C52.1997 7.984 51.9557 7.284 51.9557 6.348C51.9557 5.868 52.0157 5.404 52.1357 4.956C52.2637 4.508 52.4077 4.196 52.5677 4.02C52.7357 3.844 53.0477 3.692 53.5037 3.564C53.9597 3.436 54.4117 3.372 54.8597 3.372C55.5797 3.372 56.1197 3.5 56.4797 3.756C56.8397 4.012 57.0757 4.368 57.1877 4.824C57.2997 5.272 57.3557 5.876 57.3557 6.636C56.8117 6.668 56.2797 6.684 55.7597 6.684H54.0557C54.0557 6.94 54.1077 7.132 54.2117 7.26C54.3237 7.388 54.4797 7.472 54.6797 7.512C54.8797 7.544 55.1597 7.56 55.5197 7.56ZM54.1757 4.8C54.1277 4.824 54.0917 4.928 54.0677 5.112C54.0437 5.296 54.0277 5.504 54.0197 5.736H54.6437C55.0197 5.736 55.2917 5.732 55.4597 5.724C55.4597 5.34 55.4037 5.068 55.2917 4.908C55.1877 4.748 55.0037 4.668 54.7397 4.668C54.5237 4.668 54.3357 4.712 54.1757 4.8Z" fill="white"/>
<path d="M28.8328 3.36C29.4568 3.36 29.9368 3.548 30.2728 3.924C30.6168 4.3 30.7888 4.964 30.7888 5.916C30.7888 6.612 30.7168 7.208 30.5728 7.704C30.4368 8.192 30.2808 8.504 30.1048 8.64C29.8968 8.808 29.5888 8.932 29.1808 9.012C28.7728 9.092 28.3088 9.132 27.7888 9.132C27.3888 9.132 26.9408 9.1 26.4448 9.036C25.9488 8.98 25.5048 8.888 25.1128 8.76V1.8L27.1888 1.716V2.844C27.1888 2.908 27.1848 3.056 27.1768 3.288C27.1768 3.52 27.1688 3.716 27.1528 3.876C27.1368 4.028 27.1128 4.144 27.0808 4.224L27.1528 4.308C27.3368 4.028 27.5688 3.8 27.8488 3.624C28.1288 3.448 28.4568 3.36 28.8328 3.36ZM28.4968 7.692C28.5448 7.612 28.5848 7.424 28.6168 7.128C28.6568 6.832 28.6768 6.548 28.6768 6.276C28.6768 5.956 28.6608 5.704 28.6288 5.52C28.6048 5.336 28.5368 5.192 28.4248 5.088C28.3208 4.976 28.1568 4.92 27.9328 4.92C27.7328 4.92 27.4768 4.948 27.1648 5.004V7.716C27.4608 7.764 27.7688 7.788 28.0888 7.788C28.3208 7.788 28.4568 7.756 28.4968 7.692ZM35.0018 3.36C35.1058 3.36 35.2138 3.372 35.3258 3.396C35.4458 3.42 35.5338 3.448 35.5898 3.48C35.5898 3.656 35.5698 3.948 35.5298 4.356C35.4898 4.756 35.4538 5.04 35.4218 5.208C35.3418 5.2 35.1938 5.196 34.9778 5.196C34.4738 5.196 34.0258 5.224 33.6338 5.28V9H31.5818V3.48H33.2978L33.5378 4.368H33.5498C33.7818 4.064 34.0298 3.82 34.2938 3.636C34.5578 3.452 34.7938 3.36 35.0018 3.36ZM37.1967 2.796C36.9247 2.796 36.6887 2.704 36.4887 2.52C36.2967 2.336 36.2007 2.116 36.2007 1.86C36.2007 1.604 36.2967 1.384 36.4887 1.2C36.6887 1.016 36.9247 0.924 37.1967 0.924C37.4687 0.924 37.7007 1.016 37.8927 1.2C38.0847 1.384 38.1807 1.604 38.1807 1.86C38.1807 2.116 38.0847 2.336 37.8927 2.52C37.7007 2.704 37.4687 2.796 37.1967 2.796ZM36.1647 3.48H38.2167V9H36.1647V3.48ZM44.7302 1.716V9H43.0382L42.8702 8.076C42.7102 8.388 42.4742 8.636 42.1622 8.82C41.8502 9.004 41.4982 9.096 41.1062 9.096C40.4822 9.096 39.9822 8.872 39.6062 8.424C39.2382 7.976 39.0542 7.304 39.0542 6.408C39.0542 5.728 39.1342 5.168 39.2942 4.728C39.4542 4.288 39.6422 3.972 39.8582 3.78C39.9942 3.66 40.2702 3.56 40.6862 3.48C41.1102 3.4 41.4862 3.36 41.8142 3.36C42.1022 3.36 42.3982 3.388 42.7022 3.444C42.6782 3.06 42.6662 2.848 42.6662 2.808V1.8L44.7302 1.716ZM42.0062 7.488C42.2222 7.488 42.4462 7.452 42.6782 7.38V4.776C42.4462 4.744 42.1902 4.728 41.9102 4.728C41.6702 4.728 41.5182 4.748 41.4542 4.788C41.3662 4.852 41.2942 5.036 41.2382 5.34C41.1902 5.636 41.1662 5.948 41.1662 6.276C41.1662 6.764 41.2382 7.088 41.3822 7.248C41.5342 7.408 41.7422 7.488 42.0062 7.488ZM48.5947 3.384C48.9707 3.384 49.3627 3.412 49.7707 3.468C50.1787 3.516 50.6547 3.584 51.1987 3.672V8.448C51.1987 9.592 50.8187 10.48 50.0587 11.112C49.9627 11.192 49.7467 11.26 49.4107 11.316C49.0747 11.372 48.6947 11.4 48.2707 11.4C47.3507 11.4 46.6227 11.28 46.0867 11.04C46.0787 10.864 46.0907 10.632 46.1227 10.344C46.1627 10.056 46.2027 9.828 46.2427 9.66C46.8187 9.748 47.3827 9.792 47.9347 9.792C48.2147 9.792 48.4507 9.776 48.6427 9.744C48.8427 9.72 48.9667 9.68 49.0147 9.624C49.0787 9.56 49.1267 9.32 49.1587 8.904C49.1667 8.792 49.1707 8.628 49.1707 8.412V8.112C48.9707 8.408 48.7147 8.62 48.4027 8.748C48.0907 8.876 47.8107 8.94 47.5627 8.94C46.8907 8.94 46.3827 8.72 46.0387 8.28C45.6947 7.84 45.5227 7.196 45.5227 6.348C45.5227 5.788 45.5987 5.264 45.7507 4.776C45.9107 4.28 46.1267 3.936 46.3987 3.744C46.5747 3.624 46.8587 3.536 47.2507 3.48C47.6507 3.416 48.0987 3.384 48.5947 3.384ZM48.3427 7.44C48.6387 7.44 48.9067 7.392 49.1467 7.296V4.788C49.0587 4.772 48.9267 4.756 48.7507 4.74C48.6707 4.732 48.5507 4.728 48.3907 4.728C48.1427 4.728 47.9867 4.752 47.9227 4.8C47.8347 4.864 47.7627 5.044 47.7067 5.34C47.6587 5.628 47.6347 5.932 47.6347 6.252C47.6347 6.692 47.6827 7 47.7787 7.176C47.8827 7.352 48.0707 7.44 48.3427 7.44ZM55.5197 7.56C55.7197 7.56 56.0917 7.54 56.6357 7.5C56.7077 7.5 56.8397 7.492 57.0317 7.476L57.2117 8.712C56.5957 9 55.7957 9.144 54.8117 9.144C53.8917 9.144 53.1837 8.912 52.6877 8.448C52.1997 7.984 51.9557 7.284 51.9557 6.348C51.9557 5.868 52.0157 5.404 52.1357 4.956C52.2637 4.508 52.4077 4.196 52.5677 4.02C52.7357 3.844 53.0477 3.692 53.5037 3.564C53.9597 3.436 54.4117 3.372 54.8597 3.372C55.5797 3.372 56.1197 3.5 56.4797 3.756C56.8397 4.012 57.0757 4.368 57.1877 4.824C57.2997 5.272 57.3557 5.876 57.3557 6.636C56.8117 6.668 56.2797 6.684 55.7597 6.684H54.0557C54.0557 6.94 54.1077 7.132 54.2117 7.26C54.3237 7.388 54.4797 7.472 54.6797 7.512C54.8797 7.544 55.1597 7.56 55.5197 7.56ZM54.1757 4.8C54.1277 4.824 54.0917 4.928 54.0677 5.112C54.0437 5.296 54.0277 5.504 54.0197 5.736H54.6437C55.0197 5.736 55.2917 5.732 55.4597 5.724C55.4597 5.34 55.4037 5.068 55.2917 4.908C55.1877 4.748 55.0037 4.668 54.7397 4.668C54.5237 4.668 54.3357 4.712 54.1757 4.8Z" fill="#E02E70"/>
</g>
<defs>
<clipPath id="clip0_1_13">
<rect width="64" height="12" fill="white"/>
</clipPath>
</defs>
</svg>
